Coordinates
version=1
nRows=13
nColumns=22
inDegrees=yes

Units are S.I. units (second, meters, Newtons, ...)
If the header above contains a line with 'inDegrees', this indicates whether rotational values are in degrees (yes) or radians (no).

endheader
time	pelvis_tilt	pelvis_list	pelvis_rotation	pelvis_tx	pelvis_ty	pelvis_tz	hip_flexion_r	hip_adduction_r	hip_rotation_r	knee_angle_r	ankle_angle_r	subtalar_angle_r	hip_flexion_l	hip_adduction_l	hip_rotation_l	knee_angle_l	ankle_angle_l	subtalar_angle_l	lumbar_extension	lumbar_bending	lumbar_rotation
      0.01000000	     -0.17534265	     -3.89554599	     -6.95359127	     -1.12238297	      1.02558801	     -0.17100728	      1.03702949	      5.00588463	     -2.86159413	    -11.03859190	      9.92138915	     -1.75106718	      2.01973803	     -2.91068904	     -7.25429703	    -11.63164548	     10.89686068	     -3.39255703	    -10.39052608	      3.16768438	      2.09914872
      0.02000000	     -0.17502939	     -3.89625453	     -6.95365678	     -1.12230769	      1.02558298	     -0.17101074	      1.03259417	      5.00609390	     -2.86157762	    -11.03978767	      9.91962815	     -1.75103221	      2.01718640	     -2.91049536	     -7.25230020	    -11.63681584	     10.89803697	     -3.39360814	    -10.38564895	      3.17116915	      2.09923134
      0.03000000	     -0.17507382	     -3.89704820	     -6.95352801	     -1.12222473	      1.02557721	     -0.17101539	      1.02774338	      5.00623420	     -2.86131710	    -11.04033572	      9.91846212	     -1.75093881	      2.01453439	     -2.91040520	     -7.24968830	    -11.64206345	     10.89997487	     -3.39480162	    -10.38127939	      3.17503820	      2.10063705
      0.04000000	     -0.17507543	     -3.89794224	     -6.95299764	     -1.12213592	      1.02557060	     -0.17102262	      1.02210359	      5.00635318	     -2.86076301	    -11.04024319	      9.91788957	     -1.75075825	      2.01153693	     -2.91025540	     -7.24649704	    -11.64740642	     10.90290534	     -3.39622655	    -10.37684619	      3.17952614	      2.10357394
      0.05000000	     -0.17499307	     -3.89902606	     -6.95201409	     -1.12204334	      1.02556503	     -0.17103259	      1.01558295	      5.00649072	     -2.85994691	    -11.03918889	      9.91798413	     -1.75045723	      2.00810712	     -2.91014546	     -7.24280265	    -11.65249310	     10.90715045	     -3.39799372	    -10.37258830	      3.18448264	      2.10828449
      0.06000000	     -0.17198991	     -3.90722041	     -6.95015208	     -1.12195529	      1.02556214	     -0.17103765	      0.99663292	      5.01483612	     -2.85732280	    -11.02035717	      9.92152261	     -1.74809780	      2.00094245	     -2.91731708	     -7.22827016	    -11.65849833	     10.93288436	     -3.40819570	    -10.37682762	      3.19414466	      2.13062321
      0.07000000	     -0.17200931	     -3.90762630	     -6.94903580	     -1.12186408	      1.02555545	     -0.17104625	      0.99242125	      5.01416250	     -2.85593778	    -11.02373071	      9.92091848	     -1.74784647	      1.99666538	     -2.91676313	     -7.22835045	    -11.66078253	     10.93388931	     -3.40907698	    -10.37321449	      3.19680141	      2.13074860
      0.08000000	     -0.17428575	     -3.90778216	     -6.94876791	     -1.12179379	      1.02554907	     -0.17105126	      0.99131930	      5.01398558	     -2.85574752	    -11.02434215	      9.92087662	     -1.74780052	      1.99541460	     -2.91653058	     -7.22831465	    -11.66148906	     10.93412912	     -3.40922739	    -10.37368670	      3.19702008	      2.13101793
      0.09000000	     -0.17316897	     -3.90819883	     -6.94741303	     -1.12169362	      1.02554508	     -0.17106658	      0.98515790	      5.01243411	     -2.85441195	    -11.02715673	      9.92093846	     -1.74743451	      1.98971736	     -2.91522039	     -7.22768289	    -11.66510473	     10.93647239	     -3.41030831	    -10.36815250	      3.20006583	      2.13457970
      0.10000000	     -0.17533854	     -3.90857970	     -6.94723705	     -1.12162717	      1.02553804	     -0.17107217	      0.98409987	      5.01223960	     -2.85428229	    -11.02745300	      9.92101034	     -1.74736858	      1.98856318	     -2.91506822	     -7.22759098	    -11.66571789	     10.93690781	     -3.41047590	    -10.36887227	      3.19991174	      2.13516533
      0.11000000	     -0.16158980	     -3.91242327	     -6.95228414	     -1.12152940	      1.02555056	     -0.17106755	      0.95612233	      5.01357065	     -2.84927289	    -11.01363474	      9.93033042	     -1.74237160	      1.96600352	     -2.91619553	     -7.22444841	    -11.66700001	     10.96988552	     -3.42153159	    -10.38097395	      3.19914710	      2.17092505
      0.12000000	     -0.16350199	     -3.91278652	     -6.95206566	     -1.12146657	      1.02554490	     -0.17107028	      0.95519299	      5.01360672	     -2.84894531	    -11.01445638	      9.93026594	     -1.74231094	      1.96473510	     -2.91600479	     -7.22464499	    -11.66755038	     10.96987509	     -3.42163508	    -10.38145679	      3.19907354	      2.17065966
      0.13000000	     -0.16193509	     -3.91370219	     -6.95147329	     -1.12138028	      1.02554370	     -0.17106953	      0.95006136	      5.01375405	     -2.84680955	    -11.01891392	      9.93044306	     -1.74194962	      1.95863427	     -2.91630549	     -7.22561154	    -11.67008791	     10.97045509	     -3.42238347	    -10.37727753	      3.19970910	      2.16950289
